
      <svg data-logo="logo" xmlns="http://www.w3.org/2000/svg" viewBox="0 0 240 43">
        <g id="logogram" transform="translate(0, 1) rotate(0) "><path d="M0.452637 20.81C0.452637 9.76427 9.40694 0.809967 20.4526 0.809967H46.7026C57.7484 0.809967 66.7026 9.76427 66.7026 20.81V40.81H20.4526C9.40694 40.81 0.452637 31.8557 0.452637 20.81Z" fill="#4845D2"/><path d="M46.7026 8.30997H20.4526C13.5491 8.30997 7.95264 13.9064 7.95264 20.81C7.95264 27.7135 13.5491 33.31 20.4526 33.31H46.7026C53.6062 33.31 59.2026 27.7135 59.2026 20.81C59.2026 13.9064 53.6062 8.30997 46.7026 8.30997Z" fill="#A5B4FC"/><path d="M20.4526 27.06C23.9044 27.06 26.7026 24.2617 26.7026 20.81C26.7026 17.3582 23.9044 14.56 20.4526 14.56C17.0009 14.56 14.2026 17.3582 14.2026 20.81C14.2026 24.2617 17.0009 27.06 20.4526 27.06Z" fill="black"/><path d="M17.9526 19.56C18.643 19.56 19.2026 19.0003 19.2026 18.31C19.2026 17.6196 18.643 17.06 17.9526 17.06C17.2623 17.06 16.7026 17.6196 16.7026 18.31C16.7026 19.0003 17.2623 19.56 17.9526 19.56Z" fill="white"/><path d="M47.9526 27.06C51.4044 27.06 54.2026 24.2617 54.2026 20.81C54.2026 17.3582 51.4044 14.56 47.9526 14.56C44.5009 14.56 41.7026 17.3582 41.7026 20.81C41.7026 24.2617 44.5009 27.06 47.9526 27.06Z" fill="black"/><path d="M45.4526 19.56C46.143 19.56 46.7026 19.0003 46.7026 18.31C46.7026 17.6196 46.143 17.06 45.4526 17.06C44.7623 17.06 44.2026 17.6196 44.2026 18.31C44.2026 19.0003 44.7623 19.56 45.4526 19.56Z" fill="white"/></g>
        <g id="logotype" transform="translate(73, 1)"><path fill="#111111" d="M16.66 40.55L16.66 40.55Q14.29 40.55 12.51 39.95Q10.73 39.34 9.62 38.28Q8.51 37.22 8.08 35.87L8.08 35.87L12.49 34.64Q12.73 35.17 13.24 35.67Q13.74 36.18 14.58 36.50Q15.42 36.83 16.65 36.83L16.65 36.83Q18.61 36.83 19.73 35.93Q20.85 35.03 20.85 33.14L20.85 33.14L20.85 29.62L20.46 29.62Q20.12 30.39 19.47 31.10Q18.82 31.82 17.77 32.27Q16.72 32.73 15.16 32.73L15.16 32.73Q13.01 32.73 11.25 31.72Q9.49 30.71 8.44 28.64Q7.38 26.57 7.38 23.41L7.38 23.41Q7.38 20.18 8.45 18.01Q9.52 15.84 11.29 14.75Q13.06 13.65 15.18 13.65L15.18 13.65Q16.78 13.65 17.88 14.19Q18.97 14.73 19.65 15.54Q20.32 16.35 20.66 17.11L20.66 17.11L20.89 17.11L20.89 13.89L25.93 13.89L25.93 32.85Q25.93 35.43 24.74 37.14Q23.55 38.86 21.47 39.71Q19.38 40.55 16.66 40.55ZM16.77 28.83L16.77 28.83Q18.08 28.83 19.00 28.18Q19.91 27.53 20.39 26.31Q20.87 25.09 20.87 23.38L20.87 23.38Q20.87 21.69 20.39 20.42Q19.91 19.16 19.00 18.46Q18.08 17.76 16.77 17.76L16.77 17.76Q15.42 17.76 14.50 18.48Q13.59 19.21 13.12 20.47Q12.65 21.74 12.65 23.38L12.65 23.38Q12.65 25.05 13.12 26.28Q13.59 27.50 14.51 28.16Q15.43 28.83 16.77 28.83ZM33.36 33.38L33.36 33.38Q31.55 33.38 30.10 32.74Q28.66 32.09 27.83 30.82Q27.00 29.55 27.00 27.65L27.00 27.65Q27.00 26.06 27.59 24.98Q28.18 23.91 29.20 23.26Q30.21 22.61 31.50 22.27Q32.79 21.93 34.21 21.79L34.21 21.79Q35.87 21.62 36.89 21.47Q37.90 21.33 38.37 21.01Q38.84 20.70 38.84 20.08L38.84 20.08L38.84 19.99Q38.84 19.17 38.50 18.61Q38.16 18.05 37.49 17.75Q36.83 17.45 35.85 17.45L35.85 17.45Q34.86 17.45 34.13 17.75Q33.39 18.05 32.93 18.54Q32.47 19.04 32.25 19.65L32.25 19.65L27.55 18.87Q28.04 17.21 29.19 16.05Q30.33 14.88 32.03 14.27Q33.73 13.65 35.85 13.65L35.85 13.65Q37.41 13.65 38.86 14.02Q40.31 14.39 41.47 15.16Q42.62 15.93 43.30 17.16Q43.97 18.39 43.97 20.13L43.97 20.13L43.97 33L39.12 33L39.12 30.35L38.95 30.35Q38.49 31.24 37.72 31.91Q36.95 32.59 35.86 32.98Q34.78 33.38 33.36 33.38ZM34.81 29.77L34.81 29.77Q36.02 29.77 36.94 29.29Q37.85 28.81 38.37 27.99Q38.88 27.17 38.88 26.16L38.88 26.16L38.88 24.10Q38.66 24.27 38.20 24.40Q37.73 24.54 37.17 24.64Q36.61 24.75 36.06 24.83Q35.51 24.92 35.08 24.97L35.08 24.97Q34.14 25.10 33.43 25.41Q32.71 25.72 32.32 26.22Q31.92 26.73 31.92 27.51L31.92 27.51Q31.92 28.25 32.30 28.75Q32.68 29.26 33.32 29.51Q33.96 29.77 34.81 29.77ZM51.20 33L46.07 33L46.07 13.89L50.82 13.89L51.08 18.64L50.70 18.64Q51.15 16.88 52.01 15.77Q52.87 14.66 54.04 14.13Q55.20 13.60 56.48 13.60L56.48 13.60Q58.55 13.60 59.81 14.91Q61.08 16.22 61.67 18.95L61.67 18.95L61.08 18.95Q61.50 17.12 62.47 15.94Q63.43 14.75 64.76 14.18Q66.08 13.60 67.54 13.60L67.54 13.60Q69.30 13.60 70.67 14.37Q72.05 15.14 72.84 16.59Q73.64 18.03 73.64 20.11L73.64 20.11L73.64 33L68.51 33L68.51 21.09Q68.51 19.46 67.63 18.68Q66.75 17.89 65.47 17.89L65.47 17.89Q64.51 17.89 63.80 18.31Q63.09 18.73 62.71 19.48Q62.32 20.23 62.32 21.24L62.32 21.24L62.32 33L57.37 33L57.37 20.95Q57.37 19.55 56.54 18.72Q55.71 17.89 54.39 17.89L54.39 17.89Q53.49 17.89 52.76 18.30Q52.04 18.71 51.62 19.51Q51.20 20.30 51.20 21.45L51.20 21.45L51.20 33ZM84.37 33.38L84.37 33.38Q81.45 33.38 79.33 32.18Q77.21 30.98 76.07 28.78Q74.93 26.57 74.93 23.55L74.93 23.55Q74.93 20.59 76.06 18.37Q77.19 16.15 79.26 14.90Q81.33 13.65 84.11 13.65L84.11 13.65Q85.99 13.65 87.61 14.25Q89.24 14.85 90.47 16.06Q91.70 17.26 92.39 19.07Q93.08 20.88 93.08 23.34L93.08 23.34L93.08 24.78L77.04 24.78L77.04 21.57L90.57 21.57L88.18 22.42Q88.18 20.93 87.73 19.83Q87.27 18.73 86.38 18.12Q85.48 17.52 84.15 17.52L84.15 17.52Q82.83 17.52 81.90 18.13Q80.97 18.75 80.49 19.80Q80.01 20.85 80.01 22.20L80.01 22.20L80.01 24.47Q80.01 26.13 80.57 27.26Q81.12 28.39 82.12 28.95Q83.12 29.51 84.45 29.51L84.45 29.51Q85.36 29.51 86.09 29.26Q86.83 29.00 87.35 28.50Q87.87 27.99 88.14 27.26L88.14 27.26L92.79 28.13Q92.33 29.70 91.19 30.89Q90.04 32.08 88.32 32.73Q86.61 33.38 84.37 33.38ZM94.52 20.49L106.10 20.49L106.10 24.57L94.52 24.57L94.52 20.49ZM113.54 21.94L113.54 21.94L113.54 33L108.41 33L108.41 7.54L113.43 7.54L113.43 18.66L113.02 18.66Q113.78 16.27 115.30 14.96Q116.83 13.65 119.26 13.65L119.26 13.65Q121.24 13.65 122.72 14.52Q124.20 15.38 125.01 17.00Q125.82 18.61 125.82 20.85L125.82 20.85L125.82 33L120.70 33L120.70 21.74Q120.70 19.96 119.78 18.95Q118.87 17.94 117.24 17.94L117.24 17.94Q116.17 17.94 115.32 18.41Q114.48 18.88 114.01 19.77Q113.54 20.66 113.54 21.94ZM134.50 33.24L134.50 33.24Q132.52 33.24 131.03 32.38Q129.55 31.51 128.74 29.90Q127.92 28.28 127.92 26.04L127.92 26.04L127.92 13.89L133.05 13.89L133.05 25.16Q133.05 26.93 133.97 27.94Q134.90 28.95 136.50 28.95L136.50 28.95Q137.60 28.95 138.43 28.48Q139.27 28.01 139.74 27.11Q140.21 26.22 140.21 24.95L140.21 24.95L140.21 13.89L145.34 13.89L145.34 33L140.50 33L140.43 28.23L140.72 28.23Q139.97 30.64 138.43 31.94Q136.88 33.24 134.50 33.24ZM158.14 33.32L158.14 33.32Q156.58 33.32 155.50 32.79Q154.43 32.27 153.75 31.49Q153.08 30.71 152.72 29.94L152.72 29.94L152.48 29.94L152.48 33L147.44 33L147.44 7.54L152.57 7.54L152.57 17.11L152.72 17.11Q153.08 16.35 153.74 15.55Q154.39 14.75 155.47 14.20Q156.55 13.65 158.17 13.65L158.17 13.65Q160.29 13.65 162.05 14.75Q163.81 15.84 164.86 18.03Q165.91 20.22 165.91 23.48L165.91 23.48Q165.91 26.66 164.89 28.86Q163.86 31.05 162.10 32.19Q160.34 33.32 158.14 33.32ZM156.56 29.21L156.56 29.21Q157.90 29.21 158.81 28.47Q159.73 27.74 160.20 26.44Q160.67 25.14 160.67 23.46L160.67 23.46Q160.67 21.79 160.20 20.51Q159.73 19.23 158.82 18.49Q157.91 17.76 156.56 17.76L156.56 17.76Q155.25 17.76 154.33 18.47Q153.40 19.17 152.92 20.45Q152.45 21.72 152.45 23.46L152.45 23.46Q152.45 25.19 152.93 26.48Q153.42 27.77 154.34 28.49Q155.27 29.21 156.56 29.21Z"/></g>
        
      </svg>
    